<?xml version="1.0" encoding="UTF-8"?>
<svg version="1.1" xmlns="http://www.w3.org/2000/svg" width="64" height="64">
<path d="M0 0 C7.70012053 5.22068172 12.87975384 10.9926929 16.265625 19.69921875 C18.21225394 29.96326226 16.76421408 39.12964741 11.265625 48.07421875 C6.57759644 54.62588336 -0.03688314 59.74054389 -8.046875 61.32421875 C-18.53440973 62.34035549 -27.31452088 61.20420491 -35.796875 54.69921875 C-43.35357774 47.62485874 -46.91072359 38.65487963 -47.421875 28.51171875 C-47.19229785 19.72026436 -43.96272115 12.35826346 -37.90625 6.04296875 C-27.95375971 -3.15681219 -12.48739495 -6.79180832 0 0 Z " fill="#529EEF" transform="translate(47.046875,2.67578125)"/>
<path d="M0 0 C7.70012053 5.22068172 12.87975384 10.9926929 16.265625 19.69921875 C17.97004713 28.68617179 17.07848824 37.07349228 12.953125 45.32421875 C11.963125 45.65421875 10.973125 45.98421875 9.953125 46.32421875 C8.58116926 47.61777702 7.24129844 48.94720577 5.953125 50.32421875 C5.953125 46.30390107 7.74294988 44.63948143 9.953125 41.32421875 C12.86403697 34.00097705 13.32060377 25.42100273 10.765625 17.88671875 C7.18977796 10.85832974 2.58078059 6.15040816 -4.80859375 3.234375 C-12.16337854 1.16722801 -21.24515722 1.06571195 -28.3046875 4.27734375 C-35.70303449 8.72298723 -39.62219765 14.05237708 -42.046875 22.32421875 C-43.09345587 32.02334616 -41.83218862 39.48742913 -35.796875 47.19921875 C-34.930625 48.25109375 -34.930625 48.25109375 -34.046875 49.32421875 C-34.046875 50.31421875 -34.046875 51.30421875 -34.046875 52.32421875 C-37.23505029 52.02651138 -38.64502203 51.78956993 -40.77734375 49.3203125 C-46.08797793 39.99466803 -48.90157815 31.28722569 -46.39453125 20.5234375 C-43.43761192 11.34810412 -37.61579735 3.93962995 -29.046875 -0.67578125 C-20.42895137 -4.18221436 -8.30742923 -4.51835368 0 0 Z " fill="#F1F5F8" transform="translate(47.046875,2.67578125)"/>
<path d="M0 0 C7.70012053 5.22068172 12.87975384 10.9926929 16.265625 19.69921875 C17.97004713 28.68617179 17.07848824 37.07349228 12.953125 45.32421875 C12.293125 45.32421875 11.633125 45.32421875 10.953125 45.32421875 C11.1696875 44.75316406 11.38625 44.18210938 11.609375 43.59375 C14.95314141 33.85657837 15.62252075 24.04484037 11.2109375 14.54296875 C6.6489739 6.49577829 0.81224109 2.61002259 -7.984375 0.07421875 C-17.36033281 -1.93622055 -24.78285226 -0.41438771 -33.0234375 4.50390625 C-38.67777208 8.71352098 -41.86974109 14.72357955 -44.046875 21.32421875 C-45.29339937 29.94521936 -44.32108528 37.69067933 -40.046875 45.32421875 C-39.48613281 46.01257812 -38.92539062 46.7009375 -38.34765625 47.41015625 C-37.91839844 48.04179688 -37.48914062 48.6734375 -37.046875 49.32421875 C-37.376875 50.31421875 -37.706875 51.30421875 -38.046875 52.32421875 C-44.62327479 43.51312 -48.53880268 34.49672262 -47.046875 23.32421875 C-44.65755338 13.1553797 -39.32251343 6.32629504 -30.91796875 0.33203125 C-22.19749685 -4.3650079 -8.78409777 -4.77761043 0 0 Z " fill="#DADADA" transform="translate(47.046875,2.67578125)"/>
<path d="M0 0 C0.66 0 1.32 0 2 0 C-1.36975514 7.58194906 -6.76403062 11.33563089 -14 15 C-22.20591566 17.81972822 -32.17578585 16.78843616 -39.93359375 13.22265625 C-42.85341985 11.49504648 -44.83231957 9.60121651 -47 7 C-46.01 7 -45.02 7 -44 7 C-43.67 6.34 -43.34 5.68 -43 5 C-42.24976563 5.433125 -41.49953125 5.86625 -40.7265625 6.3125 C-32.6950578 10.68228593 -26.99878332 12.6578747 -18.07421875 10.19140625 C-13.47698919 8.62652149 -9.85004278 6.96220964 -6 4 C-5.29875 3.835 -4.5975 3.67 -3.875 3.5 C-1.59876637 3.11426598 -1.59876637 3.11426598 0 0 Z " fill="#8B8B8C" transform="translate(57,48)"/>
<path d="M0 0 C0.33 0.99 0.66 1.98 1 3 C1.99 2.67 2.98 2.34 4 2 C4.33 2.66 4.66 3.32 5 4 C5.99 4 6.98 4 8 4 C7.67 4.99 7.34 5.98 7 7 C7.66 7.33 8.32 7.66 9 8 C9 8.66 9 9.32 9 10 C9.66 9.67 10.32 9.34 11 9 C11.33 9.66 11.66 10.32 12 11 C12.99 10.67 13.98 10.34 15 10 C15.99 10.33 16.98 10.66 18 11 C17.67 11.66 17.34 12.32 17 13 C17.66 13 18.32 13 19 13 C19.33 12.34 19.66 11.68 20 11 C20 11.66 20 12.32 20 13 C20.66 13 21.32 13 22 13 C22 12.34 22 11.68 22 11 C22.78375 11.04125 23.5675 11.0825 24.375 11.125 C27.16116119 11.28728734 27.16116119 11.28728734 29 9 C29.66 9.66 30.32 10.32 31 11 C31.99 11 32.98 11 34 11 C34 10.01 34 9.02 34 8 C35.65 8 37.3 8 39 8 C39 7.34 39 6.68 39 6 C39.66 5.67 40.32 5.34 41 5 C41 3.35 41 1.7 41 0 C42.32 0.33 43.64 0.66 45 1 C43.60322641 6.27670021 40.43191287 9.10098889 36 12 C29.3443561 15.3074683 22.41999542 17.4529438 15 16 C7.30902706 13.2413874 1.66306671 9.7355408 -3 3 C-3 2.34 -3 1.68 -3 1 C-2.01 0.67 -1.02 0.34 0 0 Z " fill="#4479E1" transform="translate(11,44)"/>
<path d="M0 0 C0 4.31945568 -2.39597069 6.98911155 -4.75 10.4375 C-5.1934375 11.10587891 -5.636875 11.77425781 -6.09375 12.46289062 C-8.46912649 15.98753015 -10.84239876 19.11536896 -14 22 C-15.98 20.02 -17.96 18.04 -20 16 C-18.82648972 12.47946915 -18.02979108 12.07853012 -15 10.1171875 C-14.195625 9.58996094 -13.39125 9.06273437 -12.5625 8.51953125 C-11.716875 7.97683594 -10.87125 7.43414062 -10 6.875 C-8.33283948 5.78982082 -6.66614744 4.70392148 -5 3.6171875 C-4.2575 3.13878418 -3.515 2.66038086 -2.75 2.16748047 C-1.05184818 1.11711501 -1.05184818 1.11711501 0 0 Z " fill="#BE4049" transform="translate(49,13)"/>
<path d="M0 0 C2.31 1.98 4.62 3.96 7 6 C5.82354543 9.52936372 5.00142068 9.94313201 1.96484375 11.91796875 C1.15595703 12.44970703 0.34707031 12.98144531 -0.48632812 13.52929688 C-1.7615332 14.35010742 -1.7615332 14.35010742 -3.0625 15.1875 C-4.34350586 16.02571289 -4.34350586 16.02571289 -5.65039062 16.88085938 C-7.76228869 18.26126202 -9.87884054 19.6338885 -12 21 C-12.66 20.67 -13.32 20.34 -14 20 C-7 10 -7 10 0 0 Z " fill="#CCD2DB" transform="translate(28,28)"/>
<path d="M0 0 C0.66 0.33 1.32 0.66 2 1 C1.31164062 1.70962891 1.31164062 1.70962891 0.609375 2.43359375 C-6.99719608 10.63143191 -9.72446445 17.24751438 -9.39453125 28.55078125 C-8.73194836 34.34346141 -7.007372 39.53577782 -3.30078125 44.0859375 C-2.87152344 44.71757813 -2.44226562 45.34921875 -2 46 C-2.33 46.99 -2.66 47.98 -3 49 C-9.57639979 40.18890125 -13.49192768 31.17250387 -12 20 C-10.14732874 12.11511935 -6.74481959 6.63927172 -1 1 C-0.67 0.67 -0.34 0.34 0 0 Z " fill="#D8D8D8" transform="translate(12,6)"/>
<path d="M0 0 C0.99 0.66 1.98 1.32 3 2 C2.42308522 5.16854747 1.58353113 6.78226459 -0.72265625 9.015625 C-1.26083984 9.54414062 -1.79902344 10.07265625 -2.35351562 10.6171875 C-2.91748047 11.15601563 -3.48144531 11.69484375 -4.0625 12.25 C-4.63033203 12.80429687 -5.19816406 13.35859375 -5.78320312 13.9296875 C-7.18212469 15.29334214 -8.59019114 16.64760417 -10 18 C-10 13.80835967 -7.80827566 11.24877527 -5.5625 7.875 C-5.14162109 7.22917969 -4.72074219 6.58335938 -4.28710938 5.91796875 C-1.18897226 1.18897226 -1.18897226 1.18897226 0 0 Z " fill="#F0F5FC" transform="translate(28,28)"/>
<path d="M0 0 C0 3 0 3 -2.1171875 5.41015625 C-3.48230469 6.72306641 -3.48230469 6.72306641 -4.875 8.0625 C-5.77992187 8.94035156 -6.68484375 9.81820313 -7.6171875 10.72265625 C-8.40351562 11.47417969 -9.18984375 12.22570313 -10 13 C-10.66 13.66 -11.32 14.32 -12 15 C-12.99 14.01 -13.98 13.02 -15 12 C-13.59679765 7.79039294 -10.54971864 6.52644045 -6.9375 4.3125 C-6.27427734 3.89677734 -5.61105469 3.48105469 -4.92773438 3.05273438 C-3.28986556 2.02759346 -1.64553023 1.01279732 0 0 Z " fill="#E84749" transform="translate(44,17)"/>
<path d="M0 0 C1.65412598 1.84452897 2.64014368 3.55566772 3.62890625 5.81640625 C-0.64454018 5.34157887 -2.506376 2.82435988 -5.37109375 -0.18359375 C-10.33642659 -4.50823848 -15.80829844 -5.41444302 -22.24609375 -5.80859375 C-23.39851563 -5.88335937 -24.5509375 -5.958125 -25.73828125 -6.03515625 C-27.04152344 -6.10863281 -27.04152344 -6.10863281 -28.37109375 -6.18359375 C-28.37109375 -6.51359375 -28.37109375 -6.84359375 -28.37109375 -7.18359375 C-16.42804525 -8.71570044 -9.07521654 -8.19519555 0 0 Z " fill="#ECF4F9" transform="translate(54.37109375,10.18359375)"/>
<path d="M0 0 C1.37478516 0.01740234 1.37478516 0.01740234 2.77734375 0.03515625 C3.69644531 0.04417969 4.61554687 0.05320313 5.5625 0.0625 C6.27277344 0.07410156 6.98304687 0.08570313 7.71484375 0.09765625 C7.71484375 1.74765625 7.71484375 3.39765625 7.71484375 5.09765625 C6.72484375 4.76765625 5.73484375 4.43765625 4.71484375 4.09765625 C4.71484375 5.08765625 4.71484375 6.07765625 4.71484375 7.09765625 C4.05484375 7.09765625 3.39484375 7.09765625 2.71484375 7.09765625 C2.38484375 6.10765625 2.05484375 5.11765625 1.71484375 4.09765625 C-1.40300738 4.74410286 -1.40300738 4.74410286 -2.28515625 7.09765625 C-3.28515625 6.09765625 -3.28515625 6.09765625 -3.41015625 3.59765625 C-3.24867212 0.36797363 -3.22032317 0.13762065 0 0 Z " fill="#6DC5F6" transform="translate(28.28515625,3.90234375)"/>
<path d="M0 0 C0.33 0 0.66 0 1 0 C1.09796875 0.7734375 1.1959375 1.546875 1.296875 2.34375 C2.78731187 12.89594394 2.78731187 12.89594394 8.62890625 21.52734375 C10 23 10 23 10 26 C9.01 26 8.02 26 7 26 C5.84120336 23.81855776 4.69812622 21.63096983 3.5625 19.4375 C3.23701172 18.82841797 2.91152344 18.21933594 2.57617188 17.59179688 C-0.38317183 11.82565296 -1.7511634 6.42093247 0 0 Z " fill="#E6E9EE" transform="translate(3,29)"/>
<path d="M0 0 C0.66 0.33 1.32 0.66 2 1 C-4.17131122 6.28969533 -8.73171241 7.31546285 -16.625 7.1875 C-17.7696875 7.1865332 -17.7696875 7.1865332 -18.9375 7.18554688 C-22.20488579 7.15975172 -24.88133815 7.03955395 -28 6 C-28 5.34 -28 4.68 -28 4 C-27.38125 4.165 -26.7625 4.33 -26.125 4.5 C-16.46562478 6.04550004 -8.74077642 4.37038821 0 0 Z " fill="#E2E4E8" transform="translate(49,54)"/>
<path d="M0 0 C3.14958831 3.42346555 3.56179109 6.44262737 4 11 C2.35 11.33 0.7 11.66 -1 12 C-0.67 11.01 -0.34 10.02 0 9 C-1.32 9.33 -2.64 9.66 -4 10 C-4 9.34 -4 8.68 -4 8 C-3.01 8 -2.02 8 -1 8 C-1 7.34 -1 6.68 -1 6 C-1.66 5.67 -2.32 5.34 -3 5 C-2.01 3.35 -1.02 1.7 0 0 Z " fill="#65AFF2" transform="translate(56,17)"/>
<path d="M0 0 C0.33 0.99 0.66 1.98 1 3 C1.99 2.67 2.98 2.34 4 2 C4.33 2.66 4.66 3.32 5 4 C5.99 4 6.98 4 8 4 C7.1875 6.4375 7.1875 6.4375 6 9 C5.01 9.33 4.02 9.66 3 10 C1.99406757 8.8803014 0.9954151 7.7540588 0 6.625 C-0.556875 5.99851562 -1.11375 5.37203125 -1.6875 4.7265625 C-3 3 -3 3 -3 1 C-2.01 0.67 -1.02 0.34 0 0 Z " fill="#4885E7" transform="translate(11,44)"/>
<path d="M0 0 C0.66 0 1.32 0 2 0 C-0.6792799 6.02837977 -4.41216448 9.57110093 -10 13 C-10.66 12.67 -11.32 12.34 -12 12 C-10.73046875 10.50260417 -9.4609375 9.00520833 -8.19140625 7.5078125 C-6.9121848 5.99405921 -6.9121848 5.99405921 -6 4 C-5.360625 3.855625 -4.72125 3.71125 -4.0625 3.5625 C-1.61789145 3.13834965 -1.61789145 3.13834965 0 0 Z " fill="#99999A" transform="translate(57,48)"/>
<path d="M0 0 C0.66 0.33 1.32 0.66 2 1 C0.68 2.65 -0.64 4.3 -2 6 C-1.34 6.33 -0.68 6.66 0 7 C0 8.65 0 10.3 0 12 C-0.94875 11.814375 -1.8975 11.62875 -2.875 11.4375 C-5.89868793 10.71313368 -5.89868793 10.71313368 -8 12 C-6.49087042 7.01987239 -3.44338151 3.75740058 0 0 Z " fill="#69BAF4" transform="translate(14,9)"/>
<path d="M0 0 C0.66 0.33 1.32 0.66 2 1 C0.3833652 7.03280791 -1.16709462 10.950809 -6 15 C-6 10.97968232 -4.21017512 9.31526268 -2 6 C-0.75675853 2.7750792 -0.75675853 2.7750792 0 0 Z " fill="#E7EBF0" transform="translate(59,38)"/>
<path d="M0 0 C0.33 0.66 0.66 1.32 1 2 C-0.98 4.97 -2.96 7.94 -5 11 C-5.66 10.67 -6.32 10.34 -7 10 C-6.42424336 6.64749299 -5.40693737 5.06181371 -2.9375 2.75 C-2.38964844 2.22921875 -1.84179688 1.7084375 -1.27734375 1.171875 C-0.64505859 0.59179688 -0.64505859 0.59179688 0 0 Z " fill="#C43338" transform="translate(41,24)"/>
<path d="M0 0 C0 0.66 0 1.32 0 2 C-6.6 1.34 -13.2 0.68 -20 0 C-20 -0.33 -20 -0.66 -20 -1 C-6.3667426 -2.51708428 -6.3667426 -2.51708428 0 0 Z " fill="#CCEBFA" transform="translate(46,4)"/>
<path d="M0 0 C1.32 0.33 2.64 0.66 4 1 C2.5682479 6.01113235 0.01554307 7.94469549 -4 11 C-4.33 10.01 -4.66 9.02 -5 8 C-4.01 8 -3.02 8 -2 8 C-2 7.34 -2 6.68 -2 6 C-1.34 5.67 -0.68 5.34 0 5 C0 3.35 0 1.7 0 0 Z " fill="#4D86E3" transform="translate(52,44)"/>
<path d="M0 0 C2.9244745 2.63202705 5.02154932 5.60837026 7 9 C6.67 9.99 6.34 10.98 6 12 C4.99157547 10.56839732 3.99352109 9.12948547 3 7.6875 C2.1646875 6.48673828 2.1646875 6.48673828 1.3125 5.26171875 C0 3 0 3 0 0 Z " fill="#B7B7B7" transform="translate(3,43)"/>
</svg>
